<svg width="100" height="100" viewBox="0 0 100 100" fill="none" xmlns="http://www.w3.org/2000/svg">
  <g clip-path="url(#clip0_156_97)">
    <path
      d="M0 50C0 22.3858 22.3858 0 50 0V0C77.6142 0 100 22.3858 100 50V50C100 77.6142 77.6142 100 50 100V100C22.3858 100 0 77.6142 0 50V50Z"
      fill="#CACACA" />
    <circle cx="50.5" cy="98.5" r="38.5" fill="#F4F4F4" />
    <circle cx="50" cy="43" r="22" fill="#CACACA" />
    <circle cx="50" cy="43" r="19" fill="#F4F4F4" />
  </g>
  <defs>
    <clipPath id="clip0_156_97">
      <path
        d="M0 50C0 22.3858 22.3858 0 50 0V0C77.6142 0 100 22.3858 100 50V50C100 77.6142 77.6142 100 50 100V100C22.3858 100 0 77.6142 0 50V50Z"
        fill="white" />
    </clipPath>
  </defs>
</svg>
  